<?xml version="1.0" encoding="UTF-8" standalone="no"?>
<!-- Created with Inkscape (http://www.inkscape.org/) -->

<svg
   xmlns:dc="http://purl.org/dc/elements/1.1/"
   xmlns:cc="http://creativecommons.org/ns#"
   xmlns:rdf="http://www.w3.org/1999/02/22-rdf-syntax-ns#"
   xmlns:svg="http://www.w3.org/2000/svg"
   xmlns="http://www.w3.org/2000/svg"
   xmlns:sodipodi="http://sodipodi.sourceforge.net/DTD/sodipodi-0.dtd"
   xmlns:inkscape="http://www.inkscape.org/namespaces/inkscape"
   width="120.29716"
   height="68.238083"
   id="svg2"
   version="1.1"
   inkscape:version="0.48.4 r9939"
   sodipodi:docname="New document 1">
  <defs
     id="defs4" />
  <sodipodi:namedview
     id="base"
     pagecolor="#ffffff"
     bordercolor="#666666"
     borderopacity="1.0"
     inkscape:pageopacity="0.0"
     inkscape:pageshadow="2"
     inkscape:zoom="2.13"
     inkscape:cx="61.103729"
     inkscape:cy="112.66907"
     inkscape:document-units="px"
     inkscape:current-layer="layer1"
     showgrid="false"
     inkscape:snap-global="true"
     showguides="false"
     fit-margin-top="0"
     fit-margin-left="0"
     fit-margin-right="0"
     fit-margin-bottom="0"
     inkscape:window-width="1680"
     inkscape:window-height="1000"
     inkscape:window-x="0"
     inkscape:window-y="0"
     inkscape:window-maximized="1" />
  <metadata
     id="metadata7">
    <rdf:RDF>
      <cc:Work
         rdf:about="">
        <dc:format>image/svg+xml</dc:format>
        <dc:type
           rdf:resource="http://purl.org/dc/dcmitype/StillImage" />
        <dc:title></dc:title>
      </cc:Work>
    </rdf:RDF>
  </metadata>
  <g
     inkscape:label="Layer 1"
     inkscape:groupmode="layer"
     id="layer1"
     transform="translate(-280.20284,-412.69552)">
    <g
       id="g3976">
      <path
         inkscape:connector-curvature="0"
         id="path2987"
         d="m 340.71429,480.21932 c -0.71429,-27.85714 59.28571,0 59.28571,0"
         style="fill:none;stroke:#000000;stroke-width:1px;stroke-linecap:butt;stroke-linejoin:miter;stroke-opacity:1" />
      <path
         inkscape:connector-curvature="0"
         id="path2987-3"
         d="m 340.63969,479.98123 c 0.71429,-27.85714 -59.28571,0 -59.28571,0"
         style="fill:none;stroke:#000000;stroke-width:1px;stroke-linecap:butt;stroke-linejoin:miter;stroke-opacity:1" />
      <path
         inkscape:connector-curvature="0"
         id="path2987-7"
         d="m 340.323,425.81456 c -0.71429,-27.85714 59.28571,0 59.28571,0"
         style="fill:none;stroke:#000000;stroke-width:1px;stroke-linecap:butt;stroke-linejoin:miter;stroke-opacity:1" />
      <path
         inkscape:connector-curvature="0"
         id="path2987-3-6"
         d="m 340.24841,425.57647 c 0.71429,-27.85714 -59.28571,0 -59.28571,0"
         style="fill:#ffffff;stroke:#000000;stroke-width:1px;stroke-linecap:butt;stroke-linejoin:miter;stroke-opacity:1" />
      <path
         inkscape:connector-curvature="0"
         id="path3032"
         d="m 280.71429,425.40934 0,54.79853"
         style="fill:none;stroke:#000000;stroke-width:1.02290583px;stroke-linecap:butt;stroke-linejoin:miter;stroke-opacity:1" />
      <path
         inkscape:connector-curvature="0"
         id="path3032-8"
         d="m 399.85714,425.26976 0,55.14912"
         style="fill:none;stroke:#000000;stroke-width:1.0294503px;stroke-linecap:butt;stroke-linejoin:miter;stroke-opacity:1" />
      <path
         inkscape:connector-curvature="0"
         id="path3915-8"
         d="m 326.294,419.52252 c -8.32821,0.21555 -16.43927,2.5304 -24.33765,5.0001 -5.06528,1.6804 -10.13301,3.43693 -14.97597,5.68071 -0.86369,0.31229 -0.92192,2.18544 0.23996,1.84709 11.43132,-4.74594 23.21912,-8.93594 35.53571,-10.48549 4.48948,-0.49588 9.15822,-0.41626 13.39844,1.25558 1.10911,-0.18857 0.6142,-1.96141 -0.32924,-2.08147 -3.03291,-1.14452 -6.32442,-1.25447 -9.53125,-1.21652 z"
         style="fill:#c87137;stroke:#ffffff;stroke-width:0.17857143" />
      <path
         inkscape:connector-curvature="0"
         id="path3917-5"
         d="m 353.39891,419.729 c -2.71461,0.13909 -5.572,0.19627 -8.0971,1.28906 -0.78294,0.48547 -0.60091,2.32885 0.58036,1.70201 5.45573,-1.80111 11.36316,-1.11605 16.9308,-0.26786 10.73982,1.96214 21.05397,5.66934 31.13281,9.81585 1.10526,0.16898 0.96173,-1.61335 0.0893,-1.86942 -6.17,-2.77843 -12.59801,-5.00248 -19.07366,-6.95313 -7.01304,-1.96055 -14.23014,-3.79192 -21.5625,-3.71651 z"
         style="fill:#c87137;stroke:#ffffff;stroke-width:0.17857143" />
      <path
         inkscape:connector-curvature="0"
         id="path3915-9"
         d="m 325.93685,429.16537 c -8.32821,0.21555 -16.43927,2.5304 -24.33765,5.0001 -5.06528,1.6804 -10.13301,3.43693 -14.97597,5.68071 -0.86369,0.31229 -0.92192,2.18544 0.23996,1.84709 11.43132,-4.74594 23.21912,-8.93594 35.53571,-10.48549 4.48948,-0.49588 9.15822,-0.41626 13.39844,1.25558 1.10911,-0.18857 0.6142,-1.96141 -0.32924,-2.08147 -3.03291,-1.14452 -6.32442,-1.25447 -9.53125,-1.21652 z"
         style="fill:#c87137;stroke:#ffffff;stroke-width:0.17857143" />
      <path
         inkscape:connector-curvature="0"
         id="path3917-1"
         d="m 353.04176,429.37185 c -2.71461,0.13909 -5.572,0.19627 -8.0971,1.28906 -0.78294,0.48547 -0.60091,2.32885 0.58036,1.70201 5.45573,-1.80111 11.36316,-1.11605 16.9308,-0.26786 10.73982,1.96214 21.05397,5.66934 31.13281,9.81585 1.10526,0.16898 0.96173,-1.61335 0.0893,-1.86942 -6.17,-2.77843 -12.59801,-5.00248 -19.07366,-6.95313 -7.01304,-1.96055 -14.23014,-3.79192 -21.5625,-3.71651 z"
         style="fill:#c87137;stroke:#ffffff;stroke-width:0.17857143" />
      <path
         inkscape:connector-curvature="0"
         id="path3915-1"
         d="m 325.93685,438.62966 c -8.32821,0.21555 -16.43927,2.5304 -24.33765,5.0001 -5.06528,1.6804 -10.13301,3.43693 -14.97597,5.68071 -0.86369,0.31229 -0.92192,2.18544 0.23996,1.84709 11.43132,-4.74594 23.21912,-8.93594 35.53571,-10.48549 4.48948,-0.49588 9.15822,-0.41626 13.39844,1.25558 1.10911,-0.18857 0.6142,-1.96141 -0.32924,-2.08147 -3.03291,-1.14452 -6.32442,-1.25447 -9.53125,-1.21652 z"
         style="fill:#c87137;stroke:#ffffff;stroke-width:0.17857143" />
      <path
         inkscape:connector-curvature="0"
         id="path3917-4"
         d="m 353.04176,438.83614 c -2.71461,0.13909 -5.572,0.19627 -8.0971,1.28906 -0.78294,0.48547 -0.60091,2.32885 0.58036,1.70201 5.45573,-1.80111 11.36316,-1.11605 16.9308,-0.26786 10.73982,1.96214 21.05397,5.66934 31.13281,9.81585 1.10526,0.16898 0.96173,-1.61335 0.0893,-1.86942 -6.17,-2.77843 -12.59801,-5.00248 -19.07366,-6.95313 -7.01304,-1.96055 -14.23014,-3.79192 -21.5625,-3.71651 z"
         style="fill:#c87137;stroke:#ffffff;stroke-width:0.17857143" />
      <path
         inkscape:connector-curvature="0"
         id="path3915-4"
         d="m 325.57971,448.80823 c -8.32821,0.21555 -16.43927,2.5304 -24.33765,5.0001 -5.06528,1.6804 -10.13301,3.43693 -14.97597,5.68071 -0.86369,0.31229 -0.92192,2.18544 0.23996,1.84709 11.43132,-4.74594 23.21912,-8.93594 35.53571,-10.48549 4.48948,-0.49588 9.15822,-0.41626 13.39844,1.25558 1.10911,-0.18857 0.6142,-1.96141 -0.32924,-2.08147 -3.03291,-1.14452 -6.32442,-1.25447 -9.53125,-1.21652 z"
         style="fill:#c87137;stroke:#ffffff;stroke-width:0.17857143" />
      <path
         inkscape:connector-curvature="0"
         id="path3917-15"
         d="m 352.68462,449.01471 c -2.71461,0.13909 -5.572,0.19627 -8.0971,1.28906 -0.78294,0.48547 -0.60091,2.32885 0.58036,1.70201 5.45573,-1.80111 11.36316,-1.11605 16.9308,-0.26786 10.73982,1.96214 21.05397,5.66934 31.13281,9.81585 1.10526,0.16898 0.96173,-1.61335 0.0893,-1.86942 -6.17,-2.77843 -12.59801,-5.00248 -19.07366,-6.95313 -7.01304,-1.96055 -14.23014,-3.79192 -21.5625,-3.71651 z"
         style="fill:#c87137;stroke:#ffffff;stroke-width:0.17857143" />
      <path
         inkscape:connector-curvature="0"
         id="path3915-3"
         d="m 325.75828,458.9868 c -8.32821,0.21555 -16.43927,2.5304 -24.33765,5.0001 -5.06528,1.6804 -10.13301,3.43693 -14.97597,5.68071 -0.86369,0.31229 -0.92192,2.18544 0.23996,1.84709 11.43132,-4.74594 23.21912,-8.93594 35.53571,-10.48549 4.48948,-0.49588 9.15822,-0.41626 13.39844,1.25558 1.10911,-0.18857 0.6142,-1.96141 -0.32924,-2.08147 -3.03291,-1.14452 -6.32442,-1.25447 -9.53125,-1.21652 z"
         style="fill:#c87137;stroke:#ffffff;stroke-width:0.17857143" />
      <path
         inkscape:connector-curvature="0"
         id="path3917-7"
         d="m 352.86319,459.19328 c -2.71461,0.13909 -5.572,0.19627 -8.0971,1.28906 -0.78294,0.48547 -0.60091,2.32885 0.58036,1.70201 5.45573,-1.80111 11.36316,-1.11605 16.9308,-0.26786 10.73982,1.96214 21.05397,5.66934 31.13281,9.81585 1.10526,0.16898 0.96173,-1.61335 0.0893,-1.86942 -6.17,-2.77843 -12.59801,-5.00248 -19.07366,-6.95313 -7.01304,-1.96055 -14.23014,-3.79192 -21.5625,-3.71651 z"
         style="fill:#c87137;stroke:#ffffff;stroke-width:0.17857143" />
    </g>
  </g>
</svg>
