<?xml version="1.0" encoding="UTF-8" standalone="no"?>
<!-- Created with Inkscape (http://www.inkscape.org/) -->

<svg
   xmlns:dc="http://purl.org/dc/elements/1.1/"
   xmlns:cc="http://creativecommons.org/ns#"
   xmlns:rdf="http://www.w3.org/1999/02/22-rdf-syntax-ns#"
   xmlns:svg="http://www.w3.org/2000/svg"
   xmlns="http://www.w3.org/2000/svg"
   xmlns:sodipodi="http://sodipodi.sourceforge.net/DTD/sodipodi-0.dtd"
   xmlns:inkscape="http://www.inkscape.org/namespaces/inkscape"
   id="svg3100"
   version="1.1"
   inkscape:version="0.48.4 r9939"
   width="235.52866"
   height="110.84582"
   sodipodi:docname="closed_book.svg">
  <metadata
     id="metadata3106">
    <rdf:RDF>
      <cc:Work
         rdf:about="">
        <dc:format>image/svg+xml</dc:format>
        <dc:type
           rdf:resource="http://purl.org/dc/dcmitype/StillImage" />
        <dc:title />
      </cc:Work>
    </rdf:RDF>
  </metadata>
  <defs
     id="defs3104" />
  <sodipodi:namedview
     pagecolor="#ffffff"
     bordercolor="#666666"
     borderopacity="1"
     objecttolerance="10"
     gridtolerance="10"
     guidetolerance="10"
     inkscape:pageopacity="0"
     inkscape:pageshadow="2"
     inkscape:window-width="1680"
     inkscape:window-height="1000"
     id="namedview3102"
     showgrid="false"
     inkscape:zoom="4"
     inkscape:cx="113.83683"
     inkscape:cy="67.040208"
     inkscape:window-x="0"
     inkscape:window-y="0"
     inkscape:window-maximized="1"
     inkscape:current-layer="layer4"
     fit-margin-top="0"
     fit-margin-left="84"
     fit-margin-right="43"
     fit-margin-bottom="0"
     showguides="true"
     inkscape:guide-bbox="true" />
  <g
     inkscape:groupmode="layer"
     id="layer4"
     inkscape:label="Fill"
     style="display:inline">
    <path
       style="fill:#540000;fill-opacity:1;stroke:none;display:inline;stroke-linejoin:round"
       d="m 181.72747,84.22583 9.24864,0.18039 0.55529,-1.08672 c 0.84176,-1.64742 -65.83902,0.28269 -102.52664,0.90633 -2.89087,0.0494 -5.20084,2.42005 -4.31174,6.87821 3.09668,15.52686 5.72863,19.11138 9.02589,19.07427 17.02597,-0.19158 35.33735,0.0507 92.50478,-0.0821 z"
       id="path4511"
       inkscape:connector-curvature="0"
       sodipodi:nodetypes="ccccsscc" />
    <path
       style="fill:#d4aa00;fill-opacity:1;stroke:none;display:inline;stroke-linejoin:round"
       d="m 114.97703,10.296879 c -0.69917,3.374999 -0.64558,6.91227 -1.04724,10.348414 -1.10638,13.941093 -2.37068,27.890659 -3.32016,41.831285 0.64285,1.121953 2.30946,0.453637 3.36226,0.62472 19.69859,-0.498407 39.41161,-0.66694 59.1041,-1.238077 0.91521,-0.690642 -0.048,-2.043017 -1.3e-4,-3.015386 -2.85371,-16.117258 -5.88204,-32.203059 -8.80856,-48.307091 -0.9704,-0.9315225 -2.75399,-0.164323 -4.04225,-0.413832 -14.95705,0 -29.91409,0 -44.87114,0 l -0.21557,0.09722 -0.16131,0.07275 z"
       id="path3987"
       inkscape:connector-curvature="0" />
    <path
       style="fill:#a98f8f;fill-opacity:1;stroke:none;stroke-linejoin:round"
       d="m 169.29071,84.357313 c -22.72499,0.104829 -45.44366,0.671137 -68.15997,1.265475 -4.457527,0.140563 -8.955432,0.08313 -13.388384,0.308805 -1.403844,0.99313 -1.772842,2.977518 -1.692421,4.60738 0.912774,4.09395 2.208339,8.105475 3.490574,12.086377 0.78322,1.94737 1.358728,4.54661 3.57418,5.31946 2.489652,0.42937 5.058929,0.0508 7.576061,0.0965 27.00677,-0.58048 54.01457,-1.11529 81.02076,-1.72157 0.94329,-0.38528 0.27621,-1.69159 0.42364,-2.47591 -0.24118,-5.878234 -0.0152,-12.088587 2.97811,-17.291815 0.27431,-0.731552 1.39789,-1.462933 0.80993,-2.23125 -4.19293,-0.15774 -8.4338,0.03239 -12.64518,0.0086 -1.3291,0.0093 -2.6582,0.01868 -3.9873,0.02802 z"
       id="path3959"
       inkscape:connector-curvature="0" />
    <path
       style="fill:#694e40;fill-opacity:1;stroke:none;stroke-linejoin:round"
       d="m 164.81776,0.95454652 c -19.7771,0.43313168 -39.56038,0.21835638 -59.33967,0.40641918 -1.04855,0.1420352 -2.6375,-0.3400293 -3.11965,0.9521874 -0.75873,2.8012377 -1.08149,5.7282643 -1.65296,8.5803169 -3.235605,18.731344 -6.818842,37.407815 -11.019683,55.939017 -1.271766,5.78209 -2.613862,11.55435 -3.844878,17.341937 0.199461,1.030521 1.490109,0.430738 2.053586,0.05225 1.099777,-1.398671 1.102599,-3.34156 1.659853,-4.982172 4.445948,-18.400021 7.637548,-37.076767 10.789692,-55.735333 1.11266,-6.473632 2.0129,-13.01147 3.28939,-19.4402822 0.43662,-0.2159347 1.40467,-0.2166967 1.06738,0.5271556 -2.52683,22.8019246 -5.548364,45.5630396 -9.572378,68.1444096 -0.631896,3.619005 -1.418478,7.210318 -2.076458,10.822595 0.390304,0.954681 1.726545,0.301323 2.528904,0.469814 27.773632,-0.524461 55.545742,-1.234481 83.324582,-1.405162 3.99404,-0.05682 7.99344,0.0948 11.97664,0.26127 0.79855,-0.646645 -0.1205,-1.795155 -0.10736,-2.647592 C 184.8949,54.01044 178.99147,27.78278 172.98508,1.5815917 c -0.61196,-0.79205346 -1.85185,-0.440197 -2.73282,-0.60072342 -1.81086,-0.0504792 -3.62316,-0.0418874 -5.4345,-0.0263258 z M 139.46407,9.8899974 c 8.27009,0 16.54017,0 24.81025,0 3.25036,17.3693846 6.39908,34.7587086 9.50502,52.1548156 -20.97941,0.495045 -41.96224,0.884002 -62.94528,1.184638 -1.06493,0.281296 -0.22861,-1.178914 -0.39743,-1.735065 1.44838,-17.198608 2.75364,-34.410662 4.24855,-51.6043886 8.25963,0 16.51926,0 24.77889,0 z"
       id="path3961"
       inkscape:connector-curvature="0" />
    <path
       style="fill:#540000;fill-opacity:1;stroke:none"
       d="m 104.03125,4 c -0.30975,0.024495 -0.51741,0.2974985 -0.53125,0.59375 -0.40728,2.3618978 -0.7408,4.7276691 -1.125,7.09375 -3.658091,22.152362 -7.704189,45.808211 -12.03125,64.84375 -0.538919,2.333091 -1.181542,4.663195 -1.6875,7 0.331473,0.95996 1.638899,0.447249 2.40625,0.59375 0.80295,0.08006 1.937958,-0.05256 1.9375,-1.09375 3.815091,-18.420441 6.365149,-37.081384 8.875,-55.71875 0.96943,-8.046778 2.01187,-15.346614 2.8125,-22.78125 C 104.6895,4.1904076 104.35485,3.9500841 104.03125,4 z"
       id="path3965"
       inkscape:connector-curvature="0"
       sodipodi:nodetypes="cccccccccc" />
    <path
       style="fill:#694e40;fill-opacity:1;stroke:none;stroke-linejoin:round"
       d="m 158.30826,11.25301 c -13.82457,0.09021 -27.65319,0.145419 -41.47408,0.412807 -0.83805,0.485084 -0.35858,1.735168 -0.61659,2.539549 -1.25318,15.570061 -2.52809,31.142002 -3.64734,46.72039 0.22333,1.111532 1.68464,0.639097 2.48206,0.72948 18.56855,-0.338166 37.13846,-0.701925 55.70288,-1.194542 0.89289,-0.476111 0.10126,-1.662488 0.1453,-2.442341 -2.55967,-15.467662 -5.1314,-30.936054 -7.86323,-46.373438 -0.5753,-0.805446 -1.80143,-0.210344 -2.64406,-0.396743 -0.69498,0.0016 -1.38996,0.0032 -2.08494,0.0048 z"
       id="path3969"
       inkscape:connector-curvature="0" />
  </g>
  <g
     inkscape:groupmode="layer"
     id="layer3"
     inkscape:label="Lines"
     style="display:inline"
     transform="translate(-335.86529,-859.11277)">
    <path
       style="fill:none;stroke:#000000;stroke-width:1px;stroke-linecap:butt;stroke-linejoin:round;stroke-opacity:1;display:inline"
       d="m 450.58445,869.04921 -4.35551,53.2822 63.44501,-1.16149 -9.58209,-52.12071 z"
       id="path3155"
       inkscape:connector-curvature="0" />
    <path
       style="fill:none;stroke:#000000;stroke-width:1px;stroke-linecap:butt;stroke-linejoin:round;stroke-opacity:1"
       d="m 522.60226,943.3386 c -5.08631,6.59501 -4.93552,14.34398 -4.41435,22.17455 l -87.67159,1.84788 c -3.77911,-0.0108 -4.40923,-2.23349 -8.52075,-16.73359 -0.73132,-2.25757 0.56145,-5.90897 2.25849,-5.85163 11.39956,0.38528 38.51661,-1.43428 98.3482,-1.43721 z"
       id="path3161"
       inkscape:connector-curvature="0"
       sodipodi:nodetypes="ccccsc" />
    <path
       style="fill:none;stroke:#000000;stroke-width:1px;stroke-linecap:butt;stroke-linejoin:round;stroke-opacity:1;display:inline"
       d="m 522.49962,943.3386 4.34178,0.18039 0.55529,-1.08672 c 0.84176,-1.64742 -65.83902,0.28269 -102.52664,0.90633 -2.89087,0.0494 -5.20084,2.42005 -4.31174,6.87821 3.09668,15.52686 5.72863,19.11138 9.02589,19.07427 17.02597,-0.19158 35.33735,0.0507 92.50478,-0.0821 l -3.24029,-18.13508"
       id="path3163"
       inkscape:connector-curvature="0"
       sodipodi:nodetypes="ccsssscc" />
    <path
       style="fill:none;stroke:#000000;stroke-width:1px;stroke-linecap:butt;stroke-linejoin:round;stroke-opacity:1"
       d="m 421.16286,945.30797 c 6.65615,-30.91372 7.00984,-27.60769 16.79065,-83.37278 0.22029,-1.2559 1.31961,-1.74573 2.75849,-1.74217 49.11646,0.83379 66.57659,-1.14171 68.23604,0.29036 l 18.45507,81.9138"
       id="path3166"
       inkscape:connector-curvature="0"
       sodipodi:nodetypes="csccc" />
    <path
       style="fill:none;stroke:#000000;stroke-width:1px;stroke-linecap:butt;stroke-linejoin:round;stroke-opacity:1"
       d="m 428.68267,943.23375 c 0,0 5.62648,-24.09537 11.92668,-79.8467 0.0452,-0.3986 -1.1547,-0.44257 -1.24562,0.14515 -9.55062,61.75219 -15.19857,79.83871 -15.19857,79.83871"
       id="path3168"
       inkscape:connector-curvature="0"
       sodipodi:nodetypes="cssc" />
    <path
       style="fill:none;stroke:#000000;stroke-width:1px;stroke-linecap:butt;stroke-linejoin:round;stroke-opacity:1;display:inline"
       d="m 452.18148,870.64621 -3.91996,50.23337 59.08949,-1.16147 -8.42062,-49.47608 z"
       id="path3159"
       inkscape:connector-curvature="0"
       sodipodi:nodetypes="ccccc" />
  </g>
</svg>
