<?xml version="1.0" encoding="UTF-8" standalone="no"?>
<!-- Created with Inkscape (http://www.inkscape.org/) -->

<svg
   xmlns:dc="http://purl.org/dc/elements/1.1/"
   xmlns:cc="http://creativecommons.org/ns#"
   xmlns:rdf="http://www.w3.org/1999/02/22-rdf-syntax-ns#"
   xmlns:svg="http://www.w3.org/2000/svg"
   xmlns="http://www.w3.org/2000/svg"
   xmlns:sodipodi="http://sodipodi.sourceforge.net/DTD/sodipodi-0.dtd"
   xmlns:inkscape="http://www.inkscape.org/namespaces/inkscape"
   id="svg2"
   version="1.1"
   inkscape:version="0.48.4 r9939"
   width="158.67899"
   height="280.65375"
   sodipodi:docname="open_hand.svg">
  <metadata
     id="metadata8">
    <rdf:RDF>
      <cc:Work
         rdf:about="">
        <dc:format>image/svg+xml</dc:format>
        <dc:type
           rdf:resource="http://purl.org/dc/dcmitype/StillImage" />
        <dc:title />
      </cc:Work>
    </rdf:RDF>
  </metadata>
  <defs
     id="defs6" />
  <sodipodi:namedview
     pagecolor="#ffffff"
     bordercolor="#666666"
     borderopacity="1"
     objecttolerance="10"
     gridtolerance="10"
     guidetolerance="10"
     inkscape:pageopacity="0"
     inkscape:pageshadow="2"
     inkscape:window-width="1680"
     inkscape:window-height="1000"
     id="namedview4"
     showgrid="false"
     fit-margin-top="0"
     fit-margin-left="37"
     fit-margin-right="10"
     fit-margin-bottom="100"
     inkscape:zoom="2.114388"
     inkscape:cx="59.685581"
     inkscape:cy="161.18289"
     inkscape:window-x="0"
     inkscape:window-y="0"
     inkscape:window-maximized="1"
     inkscape:current-layer="layer2" />
  <g
     inkscape:groupmode="layer"
     id="layer2"
     inkscape:label="Lines"
     transform="translate(-3374.0271,-2972.4687)"
     style="display:inline">
    <path
       style="fill:#ad7957;fill-opacity:1;stroke:#000000;stroke-width:1.00000012px;stroke-linecap:butt;stroke-linejoin:round;stroke-opacity:1"
       d="m 3449.2529,3152.3264 c 20.8999,1.1815 41.9087,-0.5854 63.4315,-16.2655 0,0 -13.116,-26.6127 -8.3162,-41.452 l 11.2671,-34.8338 c 2.8046,-8.6707 3.9219,-6.4239 4.1674,-16.1388 0.7699,-30.4749 2.5686,-16.2691 2.3911,-31.956 -0.086,-7.5669 -11.0512,-8.6492 -13.3928,-26.2552 -1.3354,-10.0405 -12.9717,-3.7621 -13.2054,1.9222 -0.743,18.0705 1.6184,22.88 4.4721,28.6274 -1.5163,0.4477 -2.1935,2.2635 -2.63,3.576 -2.3402,-5.5086 -1.9344,-15.2816 -6.1127,-23.8198 -2.9454,-6.0187 -6.7091,-7.1994 -10.654,-13.5935 -2.7033,-4.3818 -10.4374,-8.0698 -15.4878,-9.0224 -4.4558,-0.8405 -14.0919,1.8365 -7.8203,10.7468 1.5885,2.2569 3.8239,3.6473 5.8916,5.562 3.0398,4.5847 7.8004,7.6904 10.3282,12.4462 -3.3635,0.8022 2.7738,13.4843 2.7738,13.4843 l -2.4841,1.6195 c -6.4111,-16.7212 -17.5239,-29.8534 -35.3363,-39.502 -9.3756,-5.0786 -14.2883,7.6123 -10.2743,10.3195 8.161,5.5041 18.229,14.9764 23.1948,24.2539 1.9303,3.6065 5.1231,11.5278 5.1231,11.5278 0,0 -1.1263,1.3474 -1.4112,0.9572 0,0 -5.9114,-9.7494 -9.9707,-13.656 -5.4411,-5.2365 -10.4014,-7.0599 -14.378,-9.0924 -4.9138,-2.5116 -9.2309,1.2294 -12.0534,4.0178 -1.9708,1.9469 -7.1039,9.4458 -2.8036,11.4434 8.8343,4.1036 8.2649,-1.6511 13.1567,2.9791 6.1231,5.7955 6.4676,10.6841 13.256,17.4973 l -1.272,1.5708 c -6.7625,-5.067 -7.8268,-8.0419 -11.6485,-10.1705 -4.7338,-2.6367 -9.1018,-3.9237 -14.2617,-0.8531 -3.4239,2.0375 -4.3904,6.9897 -3.1468,10.7819 0.8997,2.7435 6.0086,3.8463 7.6629,5.5187 3.179,3.2137 7.3071,6.8307 9.5629,10.7514 0.2986,2.9519 0.4566,3.0102 1.3207,3.7226 -0.2137,2.4114 -1.1075,3.1704 0,7.266 -3.3954,26.8169 0.7542,42.5642 10.5058,56.5159 1.4376,2.0568 2.8475,3.6296 3.6426,6.0113 2.4235,7.2602 4.5162,23.492 4.5162,23.492 z"
       id="path3007"
       inkscape:connector-curvature="0"
       sodipodi:nodetypes="ccssssssccssssccccssscssssssccsssscccsscc" />
    <path
       style="fill:none;stroke:#000000;stroke-width:1.00000012px;stroke-linecap:butt;stroke-linejoin:round;stroke-opacity:1;display:inline"
       d="m 3507.1306,2981.3387 -2.7726,6.21 c 3.0516,5.9585 4.6988,5.9724 6.371,6.0917"
       id="path3894"
       inkscape:connector-curvature="0"
       sodipodi:nodetypes="ccc" />
    <path
       style="fill:none;stroke:#000000;stroke-width:1.00000012px;stroke-linecap:butt;stroke-linejoin:round;stroke-opacity:1;display:inline"
       d="m 3418.9005,3005.6473 c 1.6696,-1.2777 5.9315,-1.431 5.3022,0.8072 -0.3292,1.0477 -5.4744,-1.2597 -6.9243,1.171"
       id="path3896"
       inkscape:connector-curvature="0"
       sodipodi:nodetypes="ccc" />
    <path
       style="fill:none;stroke:#000000;stroke-width:1.00000012px;stroke-linecap:butt;stroke-linejoin:round;stroke-opacity:1;display:inline"
       d="m 3422.3256,3031.8395 c -3.0835,-2.317 -6.5755,-2.5432 -8.7596,2.7183 1.5576,-1.9614 3.9414,-2.4123 8.7596,-2.7183 z"
       id="path4666"
       inkscape:connector-curvature="0"
       sodipodi:nodetypes="ccc" />
    <path
       style="fill:none;stroke:#000000;stroke-width:1.00000012px;stroke-linecap:butt;stroke-linejoin:round;stroke-opacity:1"
       d="m 3438.9689,2995.163 c 4.647,-0.7856 8.6682,-3.4534 11.4292,-9.9115"
       id="path4671"
       inkscape:connector-curvature="0"
       sodipodi:nodetypes="cc" />
    <path
       style="fill:none;stroke:#000000;stroke-width:1.00000012px;stroke-linecap:butt;stroke-linejoin:round;stroke-opacity:1"
       d="m 3462.6199,2998.885 c -5.7805,5.176 -12.2518,8.9336 -13.5983,7.4858 -1.6418,-1.7653 8.3004,-5.8105 13.5983,-7.4858 z"
       id="path4673"
       inkscape:connector-curvature="0"
       sodipodi:nodetypes="csc" />
    <path
       style="fill:none;stroke:#000000;stroke-width:1.00000012px;stroke-linecap:butt;stroke-linejoin:round;stroke-opacity:1"
       d="m 3466.082,2991.6919 c 6.0854,-2.189 11.4208,-4.5239 13.0978,-9.0333"
       id="path4675"
       inkscape:connector-curvature="0"
       sodipodi:nodetypes="cc" />
    <path
       style="fill:none;stroke:#000000;stroke-width:1.00000012px;stroke-linecap:butt;stroke-linejoin:round;stroke-opacity:1"
       d="m 3476.3225,3015.3727 c 4.9582,-2.9538 10.5775,-2.2972 16.4139,-1.3069"
       id="path4679"
       inkscape:connector-curvature="0"
       sodipodi:nodetypes="cc" />
    <path
       style="fill:none;stroke:#000000;stroke-width:1.00000012px;stroke-linecap:butt;stroke-linejoin:round;stroke-opacity:1;display:inline"
       d="m 3473.7007,3001.8371 c 3.8939,-1.8163 8.9664,-4.1577 13.132,-4.9888 0.9631,-0.1922 0.3546,-1.0028 -0.6537,-0.8642 -5.7914,0.7962 -8.2424,2.1179 -13.6315,4.1137"
       id="path4677"
       inkscape:connector-curvature="0"
       sodipodi:nodetypes="cssc" />
    <path
       style="fill:none;stroke:#000000;stroke-width:1.00000012px;stroke-linecap:butt;stroke-linejoin:round;stroke-opacity:1;display:inline"
       d="m 3499.9943,3015.9895 c 2.4541,0.2964 5.9197,-0.9286 9.9276,-2.9692"
       id="path4683"
       inkscape:connector-curvature="0"
       sodipodi:nodetypes="cc" />
    <path
       style="fill:none;stroke:#000000;stroke-width:1.00000012px;stroke-linecap:butt;stroke-linejoin:round;stroke-opacity:1"
       d="m 3497.429,3019.4188 c -1.267,11.8411 -4.956,11.6116 7.3623,21.203"
       id="path4687"
       inkscape:connector-curvature="0"
       sodipodi:nodetypes="cc" />
    <path
       style="fill:none;stroke:#000000;stroke-width:1.00000012px;stroke-linecap:butt;stroke-linejoin:round;stroke-opacity:1"
       d="m 3496.4488,3032.1741 c -12.3873,13.3952 -0.701,21.9924 4.1712,31.4489"
       id="path4689"
       inkscape:connector-curvature="0"
       sodipodi:nodetypes="cc" />
    <path
       style="fill:none;stroke:#000000;stroke-width:1.00000012px;stroke-linecap:butt;stroke-linejoin:round;stroke-opacity:1"
       d="m 3469.0817,3014.9319 c -4.1434,1.552 -9.9071,1.668 -12.27,5.8552 -0.5317,0.9423 -0.075,1.6321 0.5899,2.6023 4.8517,-4.126 11.2672,-4.9089 11.2672,-4.9089"
       id="path4691"
       inkscape:connector-curvature="0"
       sodipodi:nodetypes="cscc" />
    <path
       style="fill:none;stroke:#000000;stroke-width:1.00000012px;stroke-linecap:butt;stroke-linejoin:round;stroke-opacity:1;display:inline"
       d="m 3427.0805,3018.8945 c 3.5107,-2.7056 5.8871,-6.147 6.7249,-10.5866"
       id="path4693"
       inkscape:connector-curvature="0"
       sodipodi:nodetypes="cc" />
    <path
       style="fill:none;stroke:#000000;stroke-width:1.00000012px;stroke-linecap:butt;stroke-linejoin:round;stroke-opacity:1;display:inline"
       d="m 3431.0919,3022.2065 c 5.626,-2.1205 10.1897,-9.7852 13.0959,-8.9897 -3.5228,4.8639 -6.6942,10.5063 -13.0959,8.9897 z"
       id="path4695"
       inkscape:connector-curvature="0"
       sodipodi:nodetypes="ccc" />
    <path
       style="fill:none;stroke:#000000;stroke-width:1.00000012px;stroke-linecap:butt;stroke-linejoin:miter;stroke-opacity:1"
       d="m 3442.0346,3037.288 c 0,0 5.5502,-7.2147 9.7924,-10.5275 1.3453,-1.0504 0.6385,-2.0898 -0.8553,-0.8871 -3.8861,3.1289 -7.1153,4.4069 -10.7658,9.4037"
       id="path4702"
       inkscape:connector-curvature="0"
       sodipodi:nodetypes="cssc" />
    <path
       style="fill:none;stroke:#000000;stroke-width:1.00000012px;stroke-linecap:butt;stroke-linejoin:miter;stroke-opacity:1"
       d="m 3418.6154,3043.8233 c 5.2853,0.5602 10.033,-1.1219 13.3613,-8.7236"
       id="path4704"
       inkscape:connector-curvature="0"
       sodipodi:nodetypes="cc" />
    <path
       style="fill:none;stroke:#000000;stroke-width:1.00000012px;stroke-linecap:butt;stroke-linejoin:miter;stroke-opacity:1"
       d="m 3429.2927,3055.2675 c 0.2622,-1.8972 3.1328,-6.2083 9.5269,-13.7803"
       id="path4706"
       inkscape:connector-curvature="0"
       sodipodi:nodetypes="cc" />
    <path
       style="fill:none;stroke:#000000;stroke-width:1.00000012px;stroke-linecap:butt;stroke-linejoin:miter;stroke-opacity:1"
       d="m 3430.5905,3066.3272 c 9.4926,-13.2092 24.436,-6.5404 33.4181,-29.0392 2.4927,-6.244 2.7135,-13.0115 2.7135,-13.0115"
       id="path4708"
       inkscape:connector-curvature="0"
       sodipodi:nodetypes="csc" />
    <path
       style="fill:none;stroke:#000000;stroke-width:1.00000012px;stroke-linecap:butt;stroke-linejoin:miter;stroke-opacity:1"
       d="m 3431.4505,3101.813 c 0,0 17.8226,-10.285 22.386,-25.3673 4.041,-13.3553 8.3223,-24.6324 11.8238,-27.2108 7.1079,-5.2341 4.9766,-11.7004 23.4782,-19.0441"
       id="path4710"
       inkscape:connector-curvature="0"
       sodipodi:nodetypes="cssc" />
    <path
       style="fill:none;stroke:#000000;stroke-width:1.00000012px;stroke-linecap:butt;stroke-linejoin:miter;stroke-opacity:1"
       d="m 3440.8843,3122.8089 c 13.7501,0 10.6533,-7.2472 18.1691,-11.9469"
       id="path4712"
       inkscape:connector-curvature="0"
       sodipodi:nodetypes="cc" />
    <path
       style="fill:none;stroke:#000000;stroke-width:1.00000012px;stroke-linecap:butt;stroke-linejoin:miter;stroke-opacity:1"
       d="m 3500.3467,3104.7111 c -8.1396,7.6817 -12.1407,9.1797 -18.995,11.4737 -7.2807,2.4368 -14.5509,1.656 -21.8264,2.484 -1.9087,0.2173 -1.4598,-1.3078 -0.236,-1.8925 4.0245,-1.9227 13.3319,-1.0646 13.3319,-1.0646"
       id="path4714"
       inkscape:connector-curvature="0"
       sodipodi:nodetypes="csssc" />
    <path
       style="fill:none;stroke:#000000;stroke-width:1.00000012px;stroke-linecap:butt;stroke-linejoin:miter;stroke-opacity:1"
       d="m 3497.0432,3114.2923 c -26.1818,11.3483 -33.3767,10.5715 -49.67,16.7966 -1.3837,0.5287 -2.2514,-2.4361 -1.0618,-2.9572 15.5622,-6.8162 26.1525,-4.9088 50.7318,-13.8394 z"
       id="path4716"
       inkscape:connector-curvature="0"
       sodipodi:nodetypes="cssc" />
    <path
       style="fill:none;stroke:#000000;stroke-width:1.00000012px;stroke-linecap:butt;stroke-linejoin:miter;stroke-opacity:1"
       d="m 3468.6098,3110.7437 c -1.2838,1.4041 -17.5169,-10.617 -12.034,-25.3132 l 11.5621,-30.991"
       id="path4718"
       inkscape:connector-curvature="0"
       sodipodi:nodetypes="csc" />
    <path
       style="fill:none;stroke:#000000;stroke-width:1.00000012px;stroke-linecap:butt;stroke-linejoin:miter;stroke-opacity:1"
       d="m 3471.4413,3105.3025 c 0,0 -12.5657,-7.1264 -12.8599,-14.7857 -0.4578,-11.9201 10.6667,-26.1632 13.6858,-37.0236 2.0068,-7.2189 7.0206,-13.996 13.6858,-17.3881 1.8249,-0.9287 6.371,-0.4731 6.371,-0.4731"
       id="path4720"
       inkscape:connector-curvature="0"
       sodipodi:nodetypes="csssc" />
  </g>
</svg>
