<?xml version="1.0" encoding="UTF-8" standalone="no"?>
<!-- Created with Inkscape (http://www.inkscape.org/) -->

<svg
   xmlns:dc="http://purl.org/dc/elements/1.1/"
   xmlns:cc="http://creativecommons.org/ns#"
   xmlns:rdf="http://www.w3.org/1999/02/22-rdf-syntax-ns#"
   xmlns:svg="http://www.w3.org/2000/svg"
   xmlns="http://www.w3.org/2000/svg"
   xmlns:sodipodi="http://sodipodi.sourceforge.net/DTD/sodipodi-0.dtd"
   xmlns:inkscape="http://www.inkscape.org/namespaces/inkscape"
   id="svg2"
   version="1.1"
   inkscape:version="0.48.4 r9939"
   width="634.67902"
   height="720.32007"
   sodipodi:docname="open_foreshortened_hand.svg">
  <metadata
     id="metadata8">
    <rdf:RDF>
      <cc:Work
         rdf:about="">
        <dc:format>image/svg+xml</dc:format>
        <dc:type
           rdf:resource="http://purl.org/dc/dcmitype/StillImage" />
        <dc:title></dc:title>
      </cc:Work>
    </rdf:RDF>
  </metadata>
  <defs
     id="defs6" />
  <sodipodi:namedview
     pagecolor="#ffffff"
     bordercolor="#666666"
     borderopacity="1"
     objecttolerance="10"
     gridtolerance="10"
     guidetolerance="10"
     inkscape:pageopacity="0"
     inkscape:pageshadow="2"
     inkscape:window-width="1680"
     inkscape:window-height="1000"
     id="namedview4"
     showgrid="false"
     fit-margin-top="1"
     fit-margin-left="100"
     fit-margin-right="90"
     fit-margin-bottom="0"
     inkscape:zoom="1.057194"
     inkscape:cx="327.3657"
     inkscape:cy="392.99934"
     inkscape:window-x="0"
     inkscape:window-y="0"
     inkscape:window-maximized="1"
     inkscape:current-layer="layer2" />
  <g
     inkscape:groupmode="layer"
     id="layer2"
     inkscape:label="Lines"
     transform="translate(-3311.027,-2432.8024)"
     style="display:inline">
    <path
       style="fill:#ad7957;stroke:#000000;stroke-width:1px;stroke-linecap:butt;stroke-linejoin:round;stroke-opacity:1;fill-opacity:1"
       d="m 3562.7587,3151.4388 c 83.7814,4.7238 167.9994,-2.3409 254.2777,-65.0355 0,0 -52.5779,-106.4068 -33.3369,-165.7396 l 45.1665,-139.2781 c 11.2426,-34.6686 15.7215,-25.6853 16.7055,-64.5286 3.0866,-121.8498 10.2968,-65.0497 9.5855,-127.7718 -0.3431,-30.2552 -44.3012,-34.5823 -53.688,-104.9774 -5.3532,-40.1455 -51.9996,-15.0425 -52.9365,7.6854 -2.9785,72.2524 6.4877,91.4825 17.9273,114.4627 -6.0782,1.7901 -8.7928,9.0504 -10.5429,14.2981 -9.3811,-22.0253 -7.7542,-61.1013 -24.5037,-95.24 -11.8072,-24.0652 -26.8947,-28.7857 -42.7087,-54.3519 -10.837,-17.52 -41.8406,-32.2657 -62.0862,-36.0748 -17.8617,-3.3606 -56.4901,7.3433 -31.3492,42.9697 6.3679,9.0237 15.329,14.5833 23.6179,22.239 12.1856,18.3311 31.2694,30.7487 41.4027,49.7644 -13.4833,3.2073 11.119,53.9147 11.119,53.9147 l -9.9578,6.4755 c -25.7003,-66.8573 -70.2481,-119.3645 -141.6528,-157.9432 -37.5838,-20.3058 -57.2775,30.4369 -41.1866,41.2612 32.7151,22.0073 73.0747,59.8809 92.981,96.9757 7.7382,14.4199 20.5369,46.0921 20.5369,46.0921 0,0 -4.5149,5.3874 -5.6568,3.8275 0,0 -23.6972,-38.9817 -39.9695,-54.6016 -21.8118,-20.9373 -41.6963,-28.2279 -57.6372,-36.3547 -19.698,-10.0423 -37.0038,4.9157 -48.3184,16.0644 -7.9006,7.7847 -28.4776,37.768 -11.2389,45.7549 35.414,16.4079 33.1314,-6.6016 52.7414,11.9116 24.5455,23.1726 25.9264,42.719 53.1392,69.9604 l -5.099,6.2808 c -27.109,-20.26 -31.3752,-32.1544 -46.6954,-40.6655 -18.9765,-10.5424 -36.4865,-15.6884 -57.1711,-3.4109 -13.7254,8.1467 -17.5996,27.9473 -12.6143,43.1098 3.6067,10.9696 24.0866,15.3791 30.7181,22.0657 12.7439,12.8498 29.2919,27.3116 38.3348,42.9881 1.1971,11.8025 1.8305,12.0357 5.2943,14.8844 -0.8566,9.6413 -4.4394,12.6764 -0.019,29.052 -13.6114,107.2236 3.0231,170.1866 42.1145,225.9705 5.763,8.2239 11.4149,14.5125 14.602,24.0355 9.7152,29.0288 18.1042,93.9295 18.1042,93.9295 z"
       id="path3007"
       inkscape:connector-curvature="0"
       sodipodi:nodetypes="ccssssssccssssccccssscssssssccsssscccsscc" />
    <path
       style="fill:none;stroke:#000000;stroke-width:1px;stroke-linecap:butt;stroke-linejoin:round;stroke-opacity:1;display:inline"
       d="m 530.41355,317.02853 -11.11433,24.82988 c 12.23279,23.82431 18.83607,23.87961 25.53931,24.35693"
       id="path3894"
       inkscape:connector-curvature="0"
       sodipodi:nodetypes="ccc"
       transform="translate(3264.3594,2150.74)" />
    <path
       style="fill:none;stroke:#000000;stroke-width:1px;stroke-linecap:butt;stroke-linejoin:round;stroke-opacity:1;display:inline"
       d="m 176.72542,414.22299 c 6.69314,-5.10878 23.77797,-5.72163 21.25491,3.22745 -1.31967,4.18935 -21.94519,-5.03651 -27.75738,4.68198"
       id="path3896"
       inkscape:connector-curvature="0"
       sodipodi:nodetypes="ccc"
       transform="translate(3264.3594,2150.74)" />
    <path
       style="fill:none;stroke:#000000;stroke-width:1px;stroke-linecap:butt;stroke-linejoin:round;stroke-opacity:1;display:inline"
       d="m 190.45574,518.94881 c -12.36097,-9.26427 -26.359,-10.16878 -35.11476,10.86886 6.24424,-7.84249 15.79994,-9.64535 35.11476,-10.86886 z"
       id="path4666"
       inkscape:connector-curvature="0"
       sodipodi:nodetypes="ccc"
       transform="translate(3264.3594,2150.74)" />
    <path
       style="fill:none;stroke:#000000;stroke-width:1px;stroke-linecap:butt;stroke-linejoin:round;stroke-opacity:1"
       d="m 257.17377,372.30291 c 18.62837,-3.14111 34.74827,-13.80765 45.81639,-39.62951"
       id="path4671"
       inkscape:connector-curvature="0"
       transform="translate(3264.3594,2150.74)"
       sodipodi:nodetypes="cc" />
    <path
       style="fill:none;stroke:#000000;stroke-width:1px;stroke-linecap:butt;stroke-linejoin:round;stroke-opacity:1"
       d="m 351.98361,387.18488 c -23.17251,20.69566 -49.11389,35.71996 -54.51148,29.93115 -6.58148,-7.05851 33.27393,-23.23268 54.51148,-29.93115 z"
       id="path4673"
       inkscape:connector-curvature="0"
       transform="translate(3264.3594,2150.74)"
       sodipodi:nodetypes="csc" />
    <path
       style="fill:none;stroke:#000000;stroke-width:1px;stroke-linecap:butt;stroke-linejoin:round;stroke-opacity:1"
       d="m 365.8623,358.42422 c 24.39444,-8.75226 45.78231,-18.08806 52.50492,-36.11803"
       id="path4675"
       inkscape:connector-curvature="0"
       transform="translate(3264.3594,2150.74)"
       sodipodi:nodetypes="cc" />
    <path
       style="fill:none;stroke:#000000;stroke-width:1px;stroke-linecap:butt;stroke-linejoin:round;stroke-opacity:1"
       d="m 406.91311,453.10865 c 19.87603,-11.81021 42.40224,-9.18491 65.79837,-5.22541"
       id="path4679"
       inkscape:connector-curvature="0"
       transform="translate(3264.3594,2150.74)"
       sodipodi:nodetypes="cc" />
    <path
       style="fill:none;stroke:#000000;stroke-width:1px;stroke-linecap:butt;stroke-linejoin:round;stroke-opacity:1;display:inline"
       d="m 396.40318,398.98861 c 15.60959,-7.26246 35.94362,-16.62396 52.64223,-19.94724 3.86074,-0.76835 1.42164,-4.00935 -2.62061,-3.45506 -23.21601,3.18347 -33.04131,8.46797 -54.64447,16.44775"
       id="path4677"
       inkscape:connector-curvature="0"
       sodipodi:nodetypes="cssc"
       transform="translate(3264.3594,2150.74)" />
    <path
       style="fill:none;stroke:#000000;stroke-width:1px;stroke-linecap:butt;stroke-linejoin:round;stroke-opacity:1;display:inline"
       d="m 501.80656,455.57504 c 9.83743,1.18484 23.72995,-3.71296 39.79672,-11.87213"
       id="path4683"
       inkscape:connector-curvature="0"
       sodipodi:nodetypes="cc"
       transform="translate(3264.3594,2150.74)" />
    <path
       style="fill:none;stroke:#000000;stroke-width:1px;stroke-linecap:butt;stroke-linejoin:round;stroke-opacity:1"
       d="m 491.52295,469.28652 c -5.07931,47.34468 -19.86704,46.42721 29.51312,84.77705"
       id="path4687"
       inkscape:connector-curvature="0"
       transform="translate(3264.3594,2150.74)"
       sodipodi:nodetypes="cc" />
    <path
       style="fill:none;stroke:#000000;stroke-width:1px;stroke-linecap:butt;stroke-linejoin:round;stroke-opacity:1"
       d="m 487.59344,520.28652 c -49.65682,53.55891 -2.81018,87.93383 16.72132,125.74426"
       id="path4689"
       inkscape:connector-curvature="0"
       transform="translate(3264.3594,2150.74)"
       sodipodi:nodetypes="cc" />
    <path
       style="fill:none;stroke:#000000;stroke-width:1px;stroke-linecap:butt;stroke-linejoin:round;stroke-opacity:1"
       d="m 377.88714,451.34637 c -16.6099,6.20541 -39.71464,6.66927 -49.18681,23.41102 -2.13169,3.76769 -0.29855,6.52557 2.36475,10.4049 19.44888,-16.49725 45.16673,-19.62742 45.16673,-19.62742"
       id="path4691"
       inkscape:connector-curvature="0"
       transform="translate(3264.3594,2150.74)"
       sodipodi:nodetypes="cscc" />
    <path
       style="fill:none;stroke:#000000;stroke-width:1px;stroke-linecap:butt;stroke-linejoin:round;stroke-opacity:1;display:inline"
       d="m 209.5169,467.19019 c 14.07325,-10.81796 23.59947,-24.57812 26.95816,-42.32903"
       id="path4693"
       inkscape:connector-curvature="0"
       sodipodi:nodetypes="cc"
       transform="translate(3264.3594,2150.74)" />
    <path
       style="fill:none;stroke:#000000;stroke-width:1px;stroke-linecap:butt;stroke-linejoin:round;stroke-opacity:1;display:inline"
       d="m 225.5972,480.43279 c 22.55312,-8.47848 40.84768,-39.12486 52.49747,-35.9442 -14.12164,19.4475 -26.83498,42.00806 -52.49747,35.9442 z"
       id="path4695"
       inkscape:connector-curvature="0"
       sodipodi:nodetypes="ccc"
       transform="translate(3264.3594,2150.74)" />
    <path
       style="fill:none;stroke:#000000;stroke-width:1px;stroke-linecap:butt;stroke-linejoin:miter;stroke-opacity:1"
       d="m 269.46333,540.73393 c 0,0 22.2489,-28.84708 39.25485,-42.09256 5.39261,-4.20016 2.55929,-8.35609 -3.42888,-3.54712 -15.57794,12.51033 -28.52294,17.62044 -43.1567,37.59953"
       id="path4702"
       inkscape:connector-curvature="0"
       transform="translate(3264.3594,2150.74)"
       sodipodi:nodetypes="cssc" />
    <path
       style="fill:none;stroke:#000000;stroke-width:1px;stroke-linecap:butt;stroke-linejoin:miter;stroke-opacity:1"
       d="m 175.58273,566.86443 c 21.18714,2.23971 40.21921,-4.48564 53.5616,-34.88007"
       id="path4704"
       inkscape:connector-curvature="0"
       transform="translate(3264.3594,2150.74)"
       sodipodi:nodetypes="cc" />
    <path
       style="fill:none;stroke:#000000;stroke-width:1px;stroke-linecap:butt;stroke-linejoin:miter;stroke-opacity:1"
       d="m 218.38471,612.62235 c 1.05133,-7.58569 12.55861,-24.82304 38.19073,-55.09869"
       id="path4706"
       inkscape:connector-curvature="0"
       transform="translate(3264.3594,2150.74)"
       sodipodi:nodetypes="cc" />
    <path
       style="fill:none;stroke:#000000;stroke-width:1px;stroke-linecap:butt;stroke-linejoin:miter;stroke-opacity:1"
       d="m 223.58716,656.84318 c 38.05326,-52.8151 97.95688,-26.15119 133.96312,-116.10925 9.99265,-24.96565 10.87786,-52.02451 10.87786,-52.02451"
       id="path4708"
       inkscape:connector-curvature="0"
       transform="translate(3264.3594,2150.74)"
       sodipodi:nodetypes="csc" />
    <path
       style="fill:none;stroke:#000000;stroke-width:1px;stroke-linecap:butt;stroke-linejoin:miter;stroke-opacity:1"
       d="m 227.03476,798.72801 c 0,0 71.44538,-41.12307 89.73893,-101.42753 16.19889,-53.39946 33.36162,-98.48932 47.3979,-108.79859 28.49352,-20.92773 19.94967,-46.78223 94.11707,-76.14496"
       id="path4710"
       inkscape:connector-curvature="0"
       transform="translate(3264.3594,2150.74)"
       sodipodi:nodetypes="cssc" />
    <path
       style="fill:none;stroke:#000000;stroke-width:1px;stroke-linecap:butt;stroke-linejoin:miter;stroke-opacity:1"
       d="m 264.85206,882.67686 c 55.12007,-0.008 42.70576,-28.97668 72.83432,-47.76796"
       id="path4712"
       inkscape:connector-curvature="0"
       transform="translate(3264.3594,2150.74)"
       sodipodi:nodetypes="cc" />
    <path
       style="fill:none;stroke:#000000;stroke-width:1px;stroke-linecap:butt;stroke-linejoin:miter;stroke-opacity:1"
       d="m 503.21892,810.3155 c -32.62899,30.71436 -48.66834,36.70387 -76.14497,45.87616 -29.18616,9.74297 -58.33051,6.6213 -87.49577,9.93195 -7.65119,0.86851 -5.85176,-5.22943 -0.9459,-7.5672 16.1328,-7.68769 53.44336,-4.25655 53.44336,-4.25655"
       id="path4714"
       inkscape:connector-curvature="0"
       transform="translate(3264.3594,2150.74)"
       sodipodi:nodetypes="csssc" />
    <path
       style="fill:none;stroke:#000000;stroke-width:1px;stroke-linecap:butt;stroke-linejoin:miter;stroke-opacity:1"
       d="m 489.97631,848.62445 c -104.95488,45.37484 -133.79732,42.26891 -199.11199,67.15892 -5.54719,2.11392 -9.02529,-9.74042 -4.25655,-11.82375 62.38398,-27.25383 104.83727,-19.62743 203.36854,-55.33517 z"
       id="path4716"
       inkscape:connector-curvature="0"
       transform="translate(3264.3594,2150.74)"
       sodipodi:nodetypes="cssc" />
    <path
       style="fill:none;stroke:#000000;stroke-width:1px;stroke-linecap:butt;stroke-linejoin:miter;stroke-opacity:1"
       d="m 375.99534,834.43595 c -5.14637,5.61423 -70.22015,-42.4505 -48.24091,-101.21132 L 374.10354,609.3117"
       id="path4718"
       inkscape:connector-curvature="0"
       transform="translate(3264.3594,2150.74)"
       sodipodi:nodetypes="csc" />
    <path
       style="fill:none;stroke:#000000;stroke-width:1px;stroke-linecap:butt;stroke-linejoin:miter;stroke-opacity:1"
       d="m 387.34614,812.68025 c 0,0 -50.37234,-28.49404 -51.55156,-59.11877 -1.83521,-47.66077 42.75947,-104.60971 54.86221,-148.03338 8.04471,-28.86376 28.14349,-55.96108 54.86221,-69.52367 7.31537,-3.71333 25.53931,-1.8918 25.53931,-1.8918"
       id="path4720"
       inkscape:connector-curvature="0"
       transform="translate(3264.3594,2150.74)"
       sodipodi:nodetypes="csssc" />
  </g>
</svg>
