<?xml version="1.0" encoding="UTF-8" standalone="no"?>
<!-- Created with Inkscape (http://www.inkscape.org/) -->

<svg
   xmlns:dc="http://purl.org/dc/elements/1.1/"
   xmlns:cc="http://creativecommons.org/ns#"
   xmlns:rdf="http://www.w3.org/1999/02/22-rdf-syntax-ns#"
   xmlns:svg="http://www.w3.org/2000/svg"
   xmlns="http://www.w3.org/2000/svg"
   xmlns:xlink="http://www.w3.org/1999/xlink"
   xmlns:sodipodi="http://sodipodi.sourceforge.net/DTD/sodipodi-0.dtd"
   xmlns:inkscape="http://www.inkscape.org/namespaces/inkscape"
   width="235.22974"
   height="110.93902"
   id="svg2"
   version="1.1"
   inkscape:version="0.48.4 r9939"
   sodipodi:docname="book.svg">
  <defs
     id="defs4">
    <linearGradient
       id="linearGradient4613"
       inkscape:collect="always">
      <stop
         id="stop4615"
         offset="0"
         style="stop-color:#eaeaf9;stop-opacity:1" />
      <stop
         style="stop-color:#b6baf4;stop-opacity:1"
         offset="0.36388829"
         id="stop4619" />
      <stop
         id="stop4621"
         offset="0.80513531"
         style="stop-color:#0e159b;stop-opacity:1" />
      <stop
         id="stop4617"
         offset="1"
         style="stop-color:#020202;stop-opacity:1" />
    </linearGradient>
    <linearGradient
       inkscape:collect="always"
       id="linearGradient4518">
      <stop
         style="stop-color:#000000;stop-opacity:1;"
         offset="0"
         id="stop4520" />
      <stop
         style="stop-color:#000000;stop-opacity:0;"
         offset="1"
         id="stop4522" />
    </linearGradient>
    <linearGradient
       id="linearGradient4747">
      <stop
         style="stop-color:#000000;stop-opacity:1"
         offset="0"
         id="stop4749" />
      <stop
         id="stop4755"
         offset="0.15872161"
         style="stop-color:#271561;stop-opacity:1" />
      <stop
         style="stop-color:#ffffff;stop-opacity:1"
         offset="1"
         id="stop4751" />
    </linearGradient>
    <linearGradient
       id="linearGradient3833">
      <stop
         style="stop-color:#000000;stop-opacity:1"
         offset="0"
         id="stop3835" />
      <stop
         id="stop4706"
         offset="0.223694"
         style="stop-color:#613215;stop-opacity:1" />
      <stop
         style="stop-color:#c87137;stop-opacity:0;"
         offset="1"
         id="stop3837" />
    </linearGradient>
    <linearGradient
       id="linearGradient3825">
      <stop
         style="stop-color:#000000;stop-opacity:1;"
         offset="0"
         id="stop3827" />
      <stop
         style="stop-color:#000000;stop-opacity:0"
         offset="1"
         id="stop3829" />
    </linearGradient>
    <radialGradient
       inkscape:collect="always"
       xlink:href="#linearGradient4518"
       id="radialGradient4526"
       cx="121.46798"
       cy="50.241844"
       fx="121.46798"
       fy="50.241844"
       r="90.6763"
       gradientTransform="matrix(1.0686578,-0.04119462,0.0210748,0.54671587,-9.3985583,27.777658)"
       gradientUnits="userSpaceOnUse" />
    <radialGradient
       inkscape:collect="always"
       xlink:href="#linearGradient4613"
       id="radialGradient4603"
       gradientUnits="userSpaceOnUse"
       gradientTransform="matrix(0.00940365,1.1363407,-2.2509538,0.01862748,12.14576,-144.7084)"
       cx="132.03796"
       cy="-46.842041"
       fx="132.03796"
       fy="-46.842041"
       r="90.6763" />
  </defs>
  <sodipodi:namedview
     id="base"
     pagecolor="#ffffff"
     bordercolor="#666666"
     borderopacity="1.0"
     inkscape:pageopacity="0.0"
     inkscape:pageshadow="2"
     inkscape:zoom="4.5432015"
     inkscape:cx="128.85125"
     inkscape:cy="77.499984"
     inkscape:document-units="px"
     inkscape:current-layer="layer4"
     showgrid="false"
     inkscape:snap-global="false"
     inkscape:window-width="1680"
     inkscape:window-height="1000"
     inkscape:window-x="0"
     inkscape:window-y="0"
     inkscape:window-maximized="1"
     fit-margin-top="0"
     fit-margin-left="0"
     fit-margin-right="0"
     fit-margin-bottom="0" />
  <metadata
     id="metadata7">
    <rdf:RDF>
      <cc:Work
         rdf:about="">
        <dc:format>image/svg+xml</dc:format>
        <dc:type
           rdf:resource="http://purl.org/dc/dcmitype/StillImage" />
        <dc:title />
      </cc:Work>
    </rdf:RDF>
  </metadata>
  <g
     inkscape:groupmode="layer"
     id="layer4"
     inkscape:label="Fill"
     style="display:inline">
    <path
       style="fill:#ebebeb;fill-opacity:1;stroke:none;display:inline"
       d="m 55.003677,4.7308252 c -2.38346,1.4473776 -4.33813,3.6465184 -6.517239,5.4298368 -4.106745,3.393524 -7.779919,7.622635 -12.742308,9.750813 -1.073927,0.625309 -1.119334,2.19704 -1.705845,3.212217 -9.294394,24.854885 -18.1666,49.867729 -27.2239977,74.810462 -1.0307483,2.927496 -2.1525255,5.829616 -3.1166668,8.775966 0.4412256,1.11096 1.8967467,0.1713 2.737607,0.13757 9.1456315,-2.14642 16.7180265,-8.192478 23.2562965,-14.714141 1.449205,-1.227091 1.287946,-3.412651 2.01883,-5.061295 7.98337,-27.243196 16.082615,-54.452445 23.926137,-81.7361288 0.01298,-0.3656644 -0.251576,-0.6887317 -0.632814,-0.6053 z"
       id="path4763"
       inkscape:connector-curvature="0" />
    <g
       id="g4514"
       style="fill:url(#radialGradient4526);fill-opacity:1">
      <path
         style="fill:url(#radialGradient4603);fill-opacity:1;stroke:none;display:inline"
         d="M 93.84375,0.625 C 81.478758,0.78613422 69.22776,2.8737572 56.875,3.21875 55.853641,4.0390214 55.990351,5.7787334 55.4375,6.96875 47.229526,34.896021 39.013145,62.829728 30.78125,90.75 c 0.412902,1.324762 2.491272,0.293474 3.59375,0.5625 18.62988,-0.270259 37.124844,-3.43027 55.78125,-2.65625 9.191074,0.525955 18.94442,2.154363 26.25,8.21875 1.03929,0.690519 1.78626,1.976719 3,2.3125 0.77413,-0.713412 0.71184,0.0762 0.8125,0.09375 0.17784,1.17376 1.39892,0.277988 1.84375,-0.21875 7.34674,-6.010706 17.1515,-8.005573 26.46875,-8 14.68887,-0.192432 29.30747,1.935211 44,1.59375 6.41129,-0.02216 12.83686,-0.254746 19.15625,-1.375 1.10675,-0.571804 -0.20293,-2.006508 -0.25,-2.875 -9.43341,-27.649654 -18.88199,-55.270568 -28.53125,-82.84375 -0.84892,-0.8005801 -2.27804,0.025099 -3.34375,-0.09375 -13.64722,1.2290653 -27.31489,-0.712046 -40.96875,-1 l -0.21875,0 C 132.15999,4.521625 125.26678,5.7627763 121,10.6875 c -0.68287,0.931091 -1.89303,1.778203 -2.40625,2.84375 C 116.97642,8.6736337 113.12692,4.7649034 108.375,2.90625 103.80549,1.026953 98.75007,0.60924998 93.84375,0.625 z"
         id="path3823"
         inkscape:connector-curvature="0"
         sodipodi:nodetypes="cccccccccccccccccccccc" />
    </g>
    <path
       style="fill:#ebebeb;fill-opacity:1;stroke:none;display:inline"
       d="m 184.20772,6.7049287 c -1.07865,0.5705288 0.17458,1.9025886 0.22861,2.7323299 9.39225,27.2570184 18.84531,54.4930264 28.2824,81.7345384 4.35863,3.594402 9.30314,6.88049 14.88488,8.240335 1.14732,0.212405 1.04985,-1.179613 0.52276,-1.857171 -10.85766,-27.625561 -21.82225,-55.211124 -32.73436,-82.81605 -0.80411,-0.553917 -2.00849,-0.430335 -2.77887,-1.183086 -2.92036,-1.961492 -5.10498,-4.8647757 -8.02711,-6.8233827 -0.12252,-0.03186 -0.25211,-0.05937 -0.37831,-0.027514 z"
       id="path4769"
       inkscape:connector-curvature="0" />
    <path
       transform="translate(-762.27548,-480.2186)"
       style="fill:#a98f8f;fill-opacity:1;stroke:none;display:inline"
       d="m 882.42662,581.01666 15.14603,3.20036 c 4.38686,-4.85208 34.89853,-1.47585 93.96716,-4.07075 -3.9879,-0.85431 -8.08176,-1.84717 -16.55714,-8.56999 -41.39614,6.03051 -72.50818,-9.46867 -92.55605,9.44038 z"
       id="path3816"
       inkscape:connector-curvature="0"
       sodipodi:nodetypes="ccccc" />
    <path
       style="fill:#a98f8f;fill-opacity:1;stroke:none;display:inline"
       d="m 83.301454,88.750597 c -15.441343,0.113802 -30.756449,2.104221 -46.173256,2.731913 -2.265585,0.187819 -4.599197,0.01159 -6.82489,0.294587 -5.59505,5.474432 -11.641639,10.738203 -18.968791,13.750583 -0.622502,0.21635 -4.6380496,1.08143 -3.5502073,1.72466 3.8915233,0.36968 10.3579753,-0.0685 14.2710983,-0.0687 21.199279,-0.54018 42.35043,-2.11629 63.501794,-3.55408 3.516243,-0.0796 7.286307,-0.63277 10.599999,0.79002 0.849951,0.49983 1.616717,1.65163 2.76952,1.05842 6.732109,-1.48238 13.528919,-2.90118 20.169979,-4.65582 0.72579,-0.95977 -0.82766,-1.748718 -1.32066,-2.428083 -6.3616,-6.332031 -15.55047,-8.562708 -24.232635,-9.320245 -3.399798,-0.297978 -6.827236,-0.346461 -10.241951,-0.323285 z"
       id="path4765"
       inkscape:connector-curvature="0"
       sodipodi:nodetypes="cccccccccccccc" />
    <g
       transform="translate(-762.27548,-480.2186)"
       id="g4785"
       style="fill:#550000;display:inline">
      <path
         transform="translate(762.27548,480.2186)"
         inkscape:connector-curvature="0"
         id="path4779"
         d="m 197.10854,13.708083 c -0.75699,-0.03287 -1.94157,0.397701 -1.31215,1.334154 10.97328,28.36802 22.41398,56.598003 33.36553,84.948615 -11.35865,0.639798 -22.78388,0.679118 -34.1714,0.919828 -14.5073,0.32238 -29.02006,0.18403 -43.52711,0.46961 -4.78454,0.25781 -9.74778,0.16168 -14.3346,1.62331 -1.05967,0.26134 -1.78407,1.49859 -2.94068,0.84484 -4.69787,-0.92832 -9.37351,-2.12869 -14.09714,-2.83271 -7.53971,1.55792 -15.03788,3.31798 -22.554306,4.98685 -1.651115,-2.532 -5.016049,-2.20502 -7.641913,-2.26299 -12.268397,0.22753 -24.442577,1.57466 -36.690314,2.21447 -16.408238,0.98746 -32.844902,1.63214 -49.2829261,1.69246 -0.812973,0.30762 -1.6137151,-1.09995 -2.2286047,-0.0963 -0.3194074,0.83851 -1.17353658,2.14963 -0.3370421,2.79952 77.0189089,-2.19508 154.0490159,-4.08373 231.0656959,-6.38853 0.66121,0.0727 2.03753,0.0234 1.58274,-0.97137 -11.39124,-29.373236 -23.25151,-58.566773 -34.88495,-87.846411 -0.35522,-1.118518 -0.63749,-1.949621 -2.01083,-1.435346 z"
         style="fill:#550000;fill-opacity:1;stroke:none" />
      <path
         transform="translate(762.27548,480.2186)"
         inkscape:connector-curvature="0"
         id="path4781"
         d="m 26.820057,39.420248 c -0.714743,0.345422 -0.673919,1.336379 -1.031763,1.963893 -7.9314,21.551146 -15.8040935,43.131963 -23.5880691,64.740409 -0.2410057,0.49441 -0.5794827,1.45845 0.2221136,1.6155 0.9189245,0.0529 1.0573132,-1.19722 1.3414305,-1.8229 7.893663,-21.690805 15.72932,-43.41449 23.513702,-65.148734 0.252631,-0.439465 0.448699,-1.374596 -0.319846,-1.365364 l -0.109205,0.01365 -0.02836,0.0035 z"
         style="fill:#550000;fill-opacity:1;stroke:none" />
      <path
         transform="translate(762.27548,480.2186)"
         inkscape:connector-curvature="0"
         id="path4783"
         d="m 34.080532,19.471424 c -0.480936,0.187224 -0.568038,0.906554 -0.798911,1.348537 -2.127891,5.655808 -4.194582,11.343363 -6.218019,17.039595 -0.138191,0.554739 -0.490046,1.102935 -0.405183,1.687079 0.210477,0.562683 1.080674,0.512906 1.169737,-0.09971 2.357318,-6.427353 4.701085,-12.861881 7.008693,-19.306735 0.121307,-0.426169 -0.349134,-0.834823 -0.756317,-0.668768 z"
         style="fill:#550000;fill-opacity:1;stroke:none" />
    </g>
  </g>
  <g
     inkscape:groupmode="layer"
     id="layer2"
     inkscape:label="Lines"
     style="display:inline"
     transform="translate(-762.27548,-480.2186)">
    <path
       style="fill:none;stroke:#000000;stroke-width:1px;stroke-linecap:butt;stroke-linejoin:round;stroke-opacity:1;display:inline"
       d="m 799.17483,499.52508 -3.17504,0.11249 -33.2151,91.01099 0,0 L 997,584.3216 l -36.14584,-90.52431 -5.73498,0.2163"
       id="path3035"
       inkscape:connector-curvature="0"
       sodipodi:nodetypes="ccccccc" />
    <path
       style="fill:none;stroke:#000000;stroke-width:1px;stroke-linecap:butt;stroke-linejoin:round;stroke-opacity:1"
       d="m 818.73613,483.37989 c -11.82798,9.67625 -16.54174,15.82799 -21.53087,16.83439 l -31.74878,87.64448 c 6.855,-1.40847 14.02772,-2.76576 27.31328,-16.14259 z"
       inkscape:connector-curvature="0"
       sodipodi:nodetypes="ccccc"
       id="path2993" />
    <path
       style="fill:none;stroke:#000000;stroke-width:1px;stroke-linecap:butt;stroke-linejoin:round;stroke-opacity:1;display:inline"
       d="m 792.79111,571.73427 c 32.77064,0.19136 74.02454,-11.13522 89.60903,9.33175 l -22.67239,5.07924 c -2.13251,-5.88198 -20.98369,0.83889 -94.31658,1.72739"
       id="path3039"
       inkscape:connector-curvature="0"
       sodipodi:nodetypes="cccc" />
    <path
       style="fill:none;stroke:#000000;stroke-width:1px;stroke-linecap:butt;stroke-linejoin:round;stroke-opacity:1"
       d="m 818.75691,483.37872 c 23.61072,-0.16308 55.0895,-10.46022 62.25804,10.47761 l 1.40374,87.14699"
       id="path3042"
       inkscape:connector-curvature="0"
       sodipodi:nodetypes="ccc" />
    <path
       style="fill:none;stroke:#000000;stroke-width:1px;stroke-linecap:butt;stroke-linejoin:round;stroke-opacity:1"
       d="m 974.95677,571.52229 -29.87275,-86.28238 c 5.81988,3.98679 8.82789,9.62439 12.50592,9.31709 l 33.85911,85.56764"
       id="path3818"
       inkscape:connector-curvature="0"
       sodipodi:nodetypes="cccc" />
    <path
       style="fill:none;stroke:#000000;stroke-width:1px;stroke-linecap:butt;stroke-linejoin:round;stroke-opacity:1"
       d="m 880.99948,493.86044 c 9.87024,-16.9483 33.69674,-4.69443 64.12879,-8.58948"
       id="path3820"
       inkscape:connector-curvature="0"
       sodipodi:nodetypes="cc" />
    <path
       inkscape:connector-curvature="0"
       id="path4802"
       d="M 93.852934,0.63129312 C 81.487942,0.79242734 69.234243,2.8794607 56.881483,3.2244535 55.860124,4.0447249 55.980647,5.7778943 55.427796,6.9679109 47.219822,34.895182 39.02357,62.825064 30.791675,90.745336 c 0.412902,1.324762 2.473388,0.302771 3.575866,0.571797 18.62988,-0.270259 37.128006,-3.430517 55.784412,-2.656497 9.191074,0.525955 18.959937,2.146227 26.265517,8.210614 1.03929,0.690519 1.77501,1.978113 2.98875,2.313894 0.97921,-0.239991 0.42594,-1.689126 0.59843,-2.434957 C 119.4916,69.069478 119.16225,41.374771 118.6496,13.700271 117.06422,8.7688673 113.18134,4.7760446 108.3773,2.897004 103.80779,1.017707 98.759254,0.6155431 93.852934,0.63129312 z"
       style="fill:none;stroke:#000000;stroke-width:1;stroke-linejoin:round;stroke-opacity:1;display:inline"
       transform="translate(762.27548,480.2186)" />
    <path
       sodipodi:nodetypes="ccccc"
       inkscape:connector-curvature="0"
       id="path4808"
       d="m 882.42662,581.01666 15.14603,3.20036 c 4.38686,-4.85208 34.89853,-1.47585 93.96716,-4.07075 -3.9879,-0.85431 -8.08176,-1.84717 -16.55714,-8.56999 -41.39614,6.03051 -72.50818,-9.46867 -92.55605,9.44038 z"
       style="fill:none;stroke:#000000;stroke-width:1px;stroke-linecap:butt;stroke-linejoin:round;stroke-opacity:1;display:inline" />
  </g>
</svg>
