<?xml version="1.0" encoding="UTF-8" standalone="no"?>
<!-- Created with Inkscape (http://www.inkscape.org/) -->

<svg
   xmlns:dc="http://purl.org/dc/elements/1.1/"
   xmlns:cc="http://creativecommons.org/ns#"
   xmlns:rdf="http://www.w3.org/1999/02/22-rdf-syntax-ns#"
   xmlns:svg="http://www.w3.org/2000/svg"
   xmlns="http://www.w3.org/2000/svg"
   xmlns:sodipodi="http://sodipodi.sourceforge.net/DTD/sodipodi-0.dtd"
   xmlns:inkscape="http://www.inkscape.org/namespaces/inkscape"
   id="svg2"
   version="1.1"
   inkscape:version="0.48.4 r9939"
   width="158.44633"
   height="280.06104"
   sodipodi:docname="resting_fist.svg">
  <metadata
     id="metadata8">
    <rdf:RDF>
      <cc:Work
         rdf:about="">
        <dc:format>image/svg+xml</dc:format>
        <dc:type
           rdf:resource="http://purl.org/dc/dcmitype/StillImage" />
        <dc:title />
      </cc:Work>
    </rdf:RDF>
  </metadata>
  <defs
     id="defs6" />
  <sodipodi:namedview
     pagecolor="#ffffff"
     bordercolor="#666666"
     borderopacity="1"
     objecttolerance="10"
     gridtolerance="10"
     guidetolerance="10"
     inkscape:pageopacity="0"
     inkscape:pageshadow="2"
     inkscape:window-width="1680"
     inkscape:window-height="1000"
     id="namedview4"
     showgrid="false"
     fit-margin-top="165"
     fit-margin-left="0"
     fit-margin-right="0"
     fit-margin-bottom="0"
     inkscape:zoom="2.114388"
     inkscape:cx="59.861677"
     inkscape:cy="116.27047"
     inkscape:window-x="0"
     inkscape:window-y="0"
     inkscape:window-maximized="1"
     inkscape:current-layer="layer2" />
  <g
     inkscape:groupmode="layer"
     id="layer2"
     inkscape:label="Lines"
     transform="translate(-152.05462,-877.49707)"
     style="display:inline">
    <path
       style="fill:#b07154;fill-opacity:1;stroke:#000000;stroke-width:1px;stroke-linecap:butt;stroke-linejoin:miter;stroke-opacity:1"
       d="m 310.00096,1103.3764 c -23.31961,-17.5439 -12.90071,-3.8667 -36.92759,-21.3477 -9.51208,-6.9206 -11.50624,-11.8441 -26.36686,-24.8885 -0.16759,-0.1471 -4.6304,-4.1888 -8.86932,-8.5611 -6.10616,-6.2983 -12.22136,-4.0622 -13.88709,-2.5203 -4.95079,-2.9422 -9.26659,-3.122 -12.22198,0.1193 -6.03417,-4.7587 -11.62804,-4.0747 -16.26979,1.3582 -2.09483,2.4519 -3.36227,4.1247 -6.66041,6.7571 -3.44402,0.6759 -10.28065,-0.1806 -14.06087,6.356 -4.04323,0.6608 -8.53041,5.9058 -10.51392,9.4957 -1.20546,2.1817 -2.27066,3.8446 -1.69684,8.7887 -10.4487,-3.6836 -13.23118,5.6911 -5.73536,12.5702 1.90877,1.7517 0.29318,8.521 2.75369,11.8957 1.33095,1.8255 4.0066,1.8845 5.94185,3.053 3.41091,3.5203 5.62367,4.2557 8.51053,6.2795 4.54915,3.1893 10.3667,8.8421 15.8382,9.8223 7.27199,1.3026 11.69343,4.0695 19.17001,6.7887 9.84026,3.579 18.2067,2.872 24.07201,2.5204 15.00768,-0.8995 39.71591,25.1945 39.71591,25.1945 16.86387,-10.194 30.59142,-24.7661 37.20783,-53.6817 z"
       id="path3045"
       inkscape:connector-curvature="0"
       sodipodi:nodetypes="csssccsccscsscsssscc" />
    <path
       style="fill:none;stroke:#000000;stroke-width:1px;stroke-linecap:butt;stroke-linejoin:miter;stroke-opacity:1"
       d="m 165.58772,1106.5153 c -1.88489,-2.4715 -1.59224,-4.9928 -1.80154,-8.0219"
       id="path3047"
       inkscape:connector-curvature="0"
       sodipodi:nodetypes="cc" />
    <path
       style="fill:none;stroke:#000000;stroke-width:1px;stroke-linecap:butt;stroke-linejoin:miter;stroke-opacity:1"
       d="m 161.53991,1101.8335 c 0.51886,-4.7711 -0.20427,-6.8325 2.57333,-11.6036"
       id="path3049"
       inkscape:connector-curvature="0"
       sodipodi:nodetypes="cc" />
    <path
       style="fill:none;stroke:#000000;stroke-width:1px;stroke-linecap:butt;stroke-linejoin:miter;stroke-opacity:1"
       d="m 156.70813,1091.339 c -1.17135,-3.9772 0.86569,-8.6336 -1.19792,-9.4202 -0.99206,-0.3782 -2.86768,1.3851 -2.86768,1.3851"
       id="path3051"
       inkscape:connector-curvature="0"
       sodipodi:nodetypes="csc" />
    <path
       style="fill:none;stroke:#000000;stroke-width:1px;stroke-linecap:butt;stroke-linejoin:miter;stroke-opacity:1"
       d="m 181.17314,1102.0034 c 1.6434,-2.4114 1.57872,-5.6267 6.73738,-6.9216 -0.82251,-1.8928 -0.91069,-0.504 -2.23664,-3.1674 -1.94566,-3.9082 -5.65789,-4.8289 -5.87438,-12.9612"
       id="path3075"
       inkscape:connector-curvature="0"
       sodipodi:nodetypes="ccsc" />
    <path
       style="fill:none;stroke:#000000;stroke-width:1px;stroke-linecap:butt;stroke-linejoin:miter;stroke-opacity:1"
       d="m 173.12753,1073.4028 c 1.16008,3.3426 2.08882,7.4846 7.12985,9.7948 -3.78121,-0.5956 -7.97463,-0.427 -9.41925,-5.3545"
       id="path3077"
       inkscape:connector-curvature="0"
       sodipodi:nodetypes="ccc" />
    <path
       style="fill:none;stroke:#000000;stroke-width:1px;stroke-linecap:butt;stroke-linejoin:miter;stroke-opacity:1"
       d="m 187.58346,1095.1989 c -2.78694,-1.0337 -5.37847,-0.8021 -7.81667,0.34"
       id="path3079"
       inkscape:connector-curvature="0"
       sodipodi:nodetypes="cc" />
    <path
       style="fill:none;stroke:#000000;stroke-width:1px;stroke-linecap:butt;stroke-linejoin:miter;stroke-opacity:1"
       d="m 184.50912,1094.5575 c -7.77032,-3.417 -9.05583,-9.2288 -17.85732,-6.8217"
       id="path3081"
       inkscape:connector-curvature="0"
       sodipodi:nodetypes="cc" />
    <path
       style="fill:none;stroke:#000000;stroke-width:1px;stroke-linecap:butt;stroke-linejoin:miter;stroke-opacity:1"
       d="m 175.15529,1088.4377 c -5.47481,-4.7032 -9.30904,-6.3012 -12.67628,-9.5172"
       id="path3083"
       inkscape:connector-curvature="0"
       sodipodi:nodetypes="cc" />
    <path
       style="fill:none;stroke:#000000;stroke-width:1px;stroke-linecap:butt;stroke-linejoin:miter;stroke-opacity:1"
       d="m 182.58509,1087.6817 c -0.93907,0.711 -1.75207,2.0408 -4.66801,2.7075"
       id="path3085"
       inkscape:connector-curvature="0"
       sodipodi:nodetypes="cc" />
    <path
       style="fill:none;stroke:#000000;stroke-width:1px;stroke-linecap:butt;stroke-linejoin:miter;stroke-opacity:1"
       d="m 180.3555,1083.1812 c -8.06632,0.077 -9.42436,0.4976 -10.8583,0.9142"
       id="path3087"
       inkscape:connector-curvature="0"
       sodipodi:nodetypes="cc" />
    <path
       style="fill:none;stroke:#000000;stroke-width:1px;stroke-linecap:butt;stroke-linejoin:miter;stroke-opacity:1"
       d="m 188.60329,1054.3206 c 6.16629,-0.2069 8.36655,0.9793 12.3241,3.6719"
       id="path3089"
       inkscape:connector-curvature="0"
       sodipodi:nodetypes="cc" />
    <path
       style="fill:none;stroke:#000000;stroke-width:1px;stroke-linecap:butt;stroke-linejoin:miter;stroke-opacity:1"
       d="m 226.53597,1046.827 c -1.31951,-0.8497 -1.57067,-0.3938 -2.58318,-0.762"
       id="path3093"
       inkscape:connector-curvature="0"
       sodipodi:nodetypes="cc" />
    <path
       style="fill:none;stroke:#000000;stroke-width:1px;stroke-linecap:butt;stroke-linejoin:miter;stroke-opacity:1"
       d="m 214.17704,1046.9412 c -1.19018,-0.6514 -1.57452,-0.1146 -2.41062,-0.7339"
       id="path3095"
       inkscape:connector-curvature="0"
       sodipodi:nodetypes="cc" />
  </g>
</svg>
