<?xml version="1.0" encoding="UTF-8" standalone="no"?>
<!-- Created with Inkscape (http://www.inkscape.org/) -->

<svg
   xmlns:dc="http://purl.org/dc/elements/1.1/"
   xmlns:cc="http://creativecommons.org/ns#"
   xmlns:rdf="http://www.w3.org/1999/02/22-rdf-syntax-ns#"
   xmlns:svg="http://www.w3.org/2000/svg"
   xmlns="http://www.w3.org/2000/svg"
   xmlns:sodipodi="http://sodipodi.sourceforge.net/DTD/sodipodi-0.dtd"
   xmlns:inkscape="http://www.inkscape.org/namespaces/inkscape"
   id="svg2"
   version="1.1"
   inkscape:version="0.48.4 r9939"
   width="635.53326"
   height="720.06091"
   sodipodi:docname="resting_fist.svg">
  <metadata
     id="metadata8">
    <rdf:RDF>
      <cc:Work
         rdf:about="">
        <dc:format>image/svg+xml</dc:format>
        <dc:type
           rdf:resource="http://purl.org/dc/dcmitype/StillImage" />
        <dc:title></dc:title>
      </cc:Work>
    </rdf:RDF>
  </metadata>
  <defs
     id="defs6" />
  <sodipodi:namedview
     pagecolor="#ffffff"
     bordercolor="#666666"
     borderopacity="1"
     objecttolerance="10"
     gridtolerance="10"
     guidetolerance="10"
     inkscape:pageopacity="0"
     inkscape:pageshadow="2"
     inkscape:window-width="1680"
     inkscape:window-height="1000"
     id="namedview4"
     showgrid="false"
     fit-margin-top="200"
     fit-margin-left="2"
     fit-margin-right="0"
     fit-margin-bottom="60"
     inkscape:zoom="1.057194"
     inkscape:cx="338.48666"
     inkscape:cy="361.83093"
     inkscape:window-x="0"
     inkscape:window-y="0"
     inkscape:window-maximized="1"
     inkscape:current-layer="layer2" />
  <g
     inkscape:groupmode="layer"
     id="layer2"
     inkscape:label="Lines"
     transform="translate(-150.05462,-497.49716)"
     style="display:inline">
    <path
       style="fill:#b07154;stroke:#000000;stroke-width:1px;stroke-linecap:butt;stroke-linejoin:miter;stroke-opacity:1;fill-opacity:1"
       d="M 785.08787,941.00542 C 691.40244,870.39671 733.2599,925.44338 636.73304,855.08754 598.51868,827.23412 590.50725,807.41879 530.80542,754.91894 c -0.6733,-0.59208 -18.60244,-16.85858 -35.6321,-34.45579 -24.53121,-25.34874 -49.09874,-16.34934 -55.79072,-10.14375 -19.88957,-11.84128 -37.22808,-12.56499 -49.10123,0.48052 -24.24198,-19.15233 -46.71509,-16.39962 -65.36311,5.46609 -8.4159,9.86806 -13.50776,16.60054 -26.7579,27.19516 -13.83618,2.72063 -41.30203,-0.7265 -56.48889,25.58096 -16.24345,2.65974 -34.27051,23.76942 -42.23915,38.2175 -4.84288,8.78072 -9.12229,15.47343 -6.817,35.37174 -41.97716,-14.82539 -53.15562,22.90521 -23.04152,50.59123 7.66837,7.05008 1.17783,34.29457 11.06281,47.87687 5.34703,7.347 16.09632,7.58449 23.87111,12.28742 13.70318,14.16816 22.59283,17.12759 34.19065,25.27307 18.27599,12.83577 41.64772,35.58674 63.62924,39.53154 29.21487,5.2428 46.97781,16.3784 77.01459,27.3227 39.53278,14.4043 73.14457,11.5586 96.70819,10.1437 60.29263,-3.6203 159.5568,101.4002 159.5568,101.4002 67.74977,-41.0278 122.89958,-99.676 149.48068,-216.05268 z"
       id="path3045"
       inkscape:connector-curvature="0"
       sodipodi:nodetypes="csssccsccscsscsssscc" />
    <path
       style="fill:none;stroke:#000000;stroke-width:1px;stroke-linecap:butt;stroke-linejoin:miter;stroke-opacity:1"
       d="m 204.91449,953.63875 c -7.57245,-9.94703 -6.39677,-20.09465 -7.23759,-32.28571"
       id="path3047"
       inkscape:connector-curvature="0"
       sodipodi:nodetypes="cc" />
    <path
       style="fill:none;stroke:#000000;stroke-width:1px;stroke-linecap:butt;stroke-linejoin:miter;stroke-opacity:1"
       d="m 188.65261,934.79601 c 2.08447,-19.20258 -0.82067,-27.49873 10.33822,-46.70132"
       id="path3049"
       inkscape:connector-curvature="0"
       sodipodi:nodetypes="cc" />
    <path
       style="fill:none;stroke:#000000;stroke-width:1px;stroke-linecap:butt;stroke-linejoin:miter;stroke-opacity:1"
       d="m 169.24116,892.55851 c -4.70585,-16.00679 3.47786,-34.74765 -4.81261,-37.91347 -3.98554,-1.52192 -11.52077,5.57494 -11.52077,5.57494"
       id="path3051"
       inkscape:connector-curvature="0"
       sodipodi:nodetypes="csc" />
    <path
       style="fill:none;stroke:#000000;stroke-width:1px;stroke-linecap:butt;stroke-linejoin:miter;stroke-opacity:1"
       d="m 267.52817,935.47976 c 6.60229,-9.70546 6.34246,-22.64569 27.0671,-27.85736 -3.3044,-7.61823 -3.65862,-2.02838 -8.98558,-12.74795 -7.81658,-15.72949 -22.7303,-19.43466 -23.60006,-52.16496"
       id="path3075"
       inkscape:connector-curvature="0"
       sodipodi:nodetypes="ccsc" />
    <path
       style="fill:none;stroke:#000000;stroke-width:1px;stroke-linecap:butt;stroke-linejoin:miter;stroke-opacity:1"
       d="m 235.20532,820.37104 c 4.66058,13.45276 8.39175,30.1233 28.64382,39.42079 -15.19081,-2.39713 -32.03767,-1.71851 -37.84138,-21.55003"
       id="path3077"
       inkscape:connector-curvature="0"
       sodipodi:nodetypes="ccc" />
    <path
       style="fill:none;stroke:#000000;stroke-width:1px;stroke-linecap:butt;stroke-linejoin:miter;stroke-opacity:1"
       d="m 293.28134,908.09357 c -11.19641,-4.1605 -21.60776,-3.22828 -31.4031,1.36846"
       id="path3079"
       inkscape:connector-curvature="0"
       sodipodi:nodetypes="cc" />
    <path
       style="fill:none;stroke:#000000;stroke-width:1px;stroke-linecap:butt;stroke-linejoin:miter;stroke-opacity:1"
       d="M 280.93032,905.51198 C 249.71341,891.7599 244.54893,868.36891 209.18937,878.0568"
       id="path3081"
       inkscape:connector-curvature="0"
       sodipodi:nodetypes="cc" />
    <path
       style="fill:none;stroke:#000000;stroke-width:1px;stroke-linecap:butt;stroke-linejoin:miter;stroke-opacity:1"
       d="M 243.35173,880.88196 C 221.35696,861.95296 205.9531,855.52144 192.4254,842.57809"
       id="path3083"
       inkscape:connector-curvature="0"
       sodipodi:nodetypes="cc" />
    <path
       style="fill:none;stroke:#000000;stroke-width:1px;stroke-linecap:butt;stroke-linejoin:miter;stroke-opacity:1"
       d="m 273.20064,877.83909 c -3.77269,2.86142 -7.03886,8.21377 -18.75355,10.89708"
       id="path3085"
       inkscape:connector-curvature="0"
       sodipodi:nodetypes="cc" />
    <path
       style="fill:none;stroke:#000000;stroke-width:1px;stroke-linecap:butt;stroke-linejoin:miter;stroke-opacity:1"
       d="m 264.24333,859.72613 c -32.40604,0.31021 -37.86192,2.00256 -43.62271,3.67927"
       id="path3087"
       inkscape:connector-curvature="0"
       sodipodi:nodetypes="cc" />
    <path
       style="fill:none;stroke:#000000;stroke-width:1px;stroke-linecap:butt;stroke-linejoin:miter;stroke-opacity:1"
       d="m 297.37845,743.57086 c 24.77277,-0.83289 33.61224,3.94149 49.5115,14.77813"
       id="path3089"
       inkscape:connector-curvature="0"
       sodipodi:nodetypes="cc" />
    <path
       style="fill:none;stroke:#000000;stroke-width:1px;stroke-linecap:butt;stroke-linejoin:miter;stroke-opacity:1"
       d="m 449.77121,713.41121 c -5.30106,-3.41978 -6.3101,-1.5846 -10.37782,-3.06681"
       id="path3093"
       inkscape:connector-curvature="0"
       sodipodi:nodetypes="cc" />
    <path
       style="fill:none;stroke:#000000;stroke-width:1px;stroke-linecap:butt;stroke-linejoin:miter;stroke-opacity:1"
       d="m 400.11981,713.87114 c -4.78151,-2.6219 -6.32558,-0.46153 -9.68456,-2.95406"
       id="path3095"
       inkscape:connector-curvature="0"
       sodipodi:nodetypes="cc" />
  </g>
</svg>
